<svg xmlns="http://www.w3.org/2000/svg" xmlns:xlink="http://www.w3.org/1999/xlink" width="794" zoomAndPan="magnify" viewBox="0 0 594.95996 842.24997" height="1123" preserveAspectRatio="xMidYMid meet" version="1.0"><defs><clipPath id="48c5201e85"><path d="M 178.667969 271.578125 L 416.207031 271.578125 L 416.207031 509.867188 L 178.667969 509.867188 Z M 178.667969 271.578125 " clip-rule="nonzero"/></clipPath></defs><g clip-path="url(#48c5201e85)"><path fill="#2f51a1" d="M 242.242188 412.242188 C 259.84375 431.964844 275.023438 442.335938 271.203125 459.527344 C 268.847656 470.140625 260.777344 477.453125 250.664062 481.570312 C 240.347656 485.769531 227.898438 486.648438 217.1875 484.316406 C 205.199219 481.707031 203.023438 473.765625 202.972656 460.382812 C 202.898438 441.507812 201.167969 312.578125 205.007812 305.15625 C 213.019531 289.667969 250.351562 293.871094 263.742188 302.746094 C 275.902344 310.804688 285.339844 328.070312 269.507812 341.3125 C 258.964844 351.03125 227.75 382.378906 221.761719 390.730469 Z M 318.414062 390.730469 C 331.195312 375.28125 374.378906 350.945312 367.054688 317.929688 C 364.730469 307.457031 357.929688 297.738281 350.597656 295.816406 C 369.726562 294.300781 391.164062 305.058594 391.539062 320.847656 C 393.171875 389.617188 394.640625 430.3125 391.789062 465.804688 Z M 295.632812 349.035156 C 314.113281 329.871094 304.800781 303.386719 288.773438 295.617188 C 305.664062 295.429688 318.375 295.019531 329.15625 304.792969 C 357.707031 330.671875 321.242188 351.179688 294.191406 378.671875 C 290.425781 382.5 286.917969 386.542969 283.773438 390.730469 C 308.507812 421.507812 356.152344 457.40625 374.5 484.964844 L 283.957031 484.40625 C 309.179688 469.714844 303.121094 442.171875 293.402344 430.515625 L 256.363281 390.730469 Z M 180.902344 482.761719 C 186.152344 502.308594 202.632812 508.722656 222.675781 509.351562 C 250.796875 510.234375 338.460938 509.976562 375.992188 508.621094 C 382.160156 508.398438 386.9375 507.675781 389.863281 507.042969 C 406.132812 503.519531 414.71875 492.179688 415.523438 472.632812 C 416.574219 447.199219 416.511719 305.519531 414.351562 297.28125 C 410.371094 282.074219 397.382812 272.933594 380.160156 272.339844 C 353.253906 271.414062 215.992188 270.9375 205.8125 273.28125 C 188.355469 277.292969 180.429688 291.28125 179.550781 308.890625 C 178.324219 333.488281 178.097656 472.09375 180.902344 482.761719 Z M 180.902344 482.761719 " fill-opacity="1" fill-rule="evenodd"/></g></svg>