<svg xmlns="http://www.w3.org/2000/svg" xmlns:xlink="http://www.w3.org/1999/xlink" width="794" zoomAndPan="magnify" viewBox="0 0 594.95996 842.24997" height="1123" preserveAspectRatio="xMidYMid meet" version="1.0"><defs><clipPath id="ab6b6f3575"><path d="M 178.667969 259.609375 L 416.207031 259.609375 L 416.207031 497.148438 L 178.667969 497.148438 Z M 178.667969 259.609375 " clip-rule="nonzero"/></clipPath></defs><g clip-path="url(#ab6b6f3575)"><path fill="#118eeb" d="M 300.570312 259.628906 C 320.21875 260.21875 338.332031 265.148438 354.902344 274.410156 C 381.191406 289.109375 401.121094 313.050781 410.421875 341.714844 C 425.535156 388.308594 410.402344 439.707031 372.371094 470.523438 C 351.671875 487.292969 327.789062 496.160156 300.71875 497.132812 L 294.671875 497.132812 C 254.972656 496.0625 218.5 475.683594 197.117188 441.933594 C 168.617188 396.949219 173.480469 338.648438 209.324219 298.792969 C 231.132812 274.535156 261.933594 260.503906 294.628906 259.628906 Z M 228.5625 344.304688 C 228.179688 345.164062 227.992188 346.128906 227.984375 347.210938 C 227.9375 383.527344 227.945312 405.378906 227.996094 412.761719 C 228.011719 415.214844 229.117188 417.097656 231.300781 418.414062 C 239.914062 423.605469 249.257812 425.980469 259.328125 425.546875 C 266.402344 425.234375 273.058594 424.089844 279.308594 422.097656 C 288.589844 419.144531 298.800781 415.746094 309.945312 411.90625 C 320.007812 408.4375 331.304688 406.257812 342.175781 407.222656 C 349.296875 407.859375 356.335938 410.253906 363.300781 414.417969 C 363.808594 414.722656 364.339844 414.890625 364.855469 414.964844 C 365.339844 415.027344 365.789062 414.699219 365.878906 414.21875 C 366.015625 413.460938 366.085938 412.683594 366.089844 411.878906 C 366.121094 372.601562 366.117188 350.722656 366.070312 346.238281 C 366.042969 343.722656 365.113281 341.808594 363.285156 340.5 C 351.535156 332.117188 337.59375 330.070312 323.589844 333.609375 C 318.941406 334.78125 314.292969 336.214844 309.640625 337.90625 C 299.730469 341.515625 291.414062 344.578125 284.6875 347.101562 C 272.847656 351.546875 259.390625 354.726562 246.761719 351.703125 C 241.648438 350.480469 236.78125 348.367188 232.152344 345.367188 C 231.375 344.863281 230.113281 344.167969 229.09375 344.015625 C 228.875 343.980469 228.660156 344.101562 228.5625 344.304688 Z M 228.5625 344.304688 " fill-opacity="1" fill-rule="nonzero"/></g></svg>